# xmcd
#
# Track frame offsets: 
#        150
#        17738
#        39391
#        55620
#        75361
#        91241
#        109747
#        137764
#        152990
#        180931
#
# Disc length: 2685 seconds
#
# Revision: 0
# Processed by: cddbd v1.5.2PL0 Copyright (c) Steve Scherf et al.
# Submitted via: ExactAudioCopy v0.95b4
#
DISCID=6b0a7b0a
DTITLE=Reel Jem - For Real
DYEAR=2006
DGENRE=R&B
TTITLE0=More
TTITLE1=For Real
TTITLE2=Waiting Up For You
TTITLE3=Baggage
TTITLE4=More Than That
TTITLE5=Games
TTITLE6=You Crossed the Line
TTITLE7=Learn to Say Goodbye
TTITLE8=Closer
TTITLE9=Trust
EXTD=
EXTT0=
EXTT1=
EXTT2=
EXTT3=
EXTT4=
EXTT5=
EXTT6=
EXTT7=
EXTT8=
EXTT9=
PLAYORDER=
